# Portable mesh generated from RGB-D data; units are meters.
v -0.019753 -0.042673 -0.116296
v -0.006722 -0.036558 -0.117819
v -0.032846 -0.014556 -0.117117
v -0.033249 -0.015882 -0.116072
v -0.032574 -0.010318 -0.117759
v -0.017498 -0.033644 -0.117734
v -0.026637 -0.024061 -0.117687
v -0.030549 -0.018150 -0.117592
v -0.040296 -0.016055 -0.027771
v 0.009552 -0.033067 -0.117874
v 0.001276 -0.026805 -0.117933
v 0.014956 -0.037943 -0.117467
v 0.019301 -0.034323 -0.115991
v 0.026885 -0.010838 -0.118174
v 0.038861 -0.010426 -0.109792
v 0.035165 -0.014215 -0.114010
v 0.010210 -0.038234 -0.009897
v 0.001448 -0.040520 -0.005487
v -0.036341 -0.006248 -0.117682
v -0.040557 -0.003771 -0.114242
v -0.040445 -0.002914 -0.114265
v -0.035132 0.001804 -0.117870
v -0.036549 0.008261 -0.115782
v -0.031969 0.016825 -0.117673
v -0.033265 0.015535 -0.115333
v -0.032448 0.017102 -0.115869
v -0.030558 0.015878 -0.117960
v -0.028944 0.019542 -0.117870
v -0.028626 0.021509 -0.117730
v -0.027184 0.021800 -0.117829
v -0.039006 0.002120 -0.116491
v -0.036964 0.003463 -0.117672
v -0.026492 0.023280 -0.112111
v -0.002867 0.035139 -0.116684
v -0.012959 0.033486 -0.114458
v -0.004557 0.033477 -0.117530
v -0.002890 0.033810 -0.117715
v -0.036105 0.013147 -0.081346
v -0.016688 0.032675 -0.025754
v -0.018194 0.031462 -0.019657
v -0.027422 0.024997 -0.014640
v 0.027292 0.006790 -0.117794
v 0.014468 0.023230 -0.118026
v 0.024605 0.020132 -0.116840
v 0.023099 0.015257 -0.117798
v 0.025500 0.019217 -0.115413
v 0.031306 0.008765 -0.117390
v -0.001060 0.035645 -0.114797
v -0.000963 0.034911 -0.117537
v 0.000510 0.035358 -0.116050
v 0.015143 0.026722 -0.115704
v 0.015243 0.025339 -0.117514
v 0.011593 0.029668 -0.061717
v 0.031111 0.007019 -0.051768
v 0.010617 0.030222 -0.042193
v 0.006639 0.032245 -0.039922
v -0.038442 -0.020345 0.000938
v -0.030054 -0.029565 0.014094
v -0.023894 -0.033171 0.024880
v -0.002384 -0.040648 0.036364
v -0.006632 -0.040303 0.032148
v -0.005281 -0.040716 0.030467
v -0.036002 -0.018110 0.040739
v -0.038058 -0.008315 0.051086
v -0.038209 -0.009148 0.047458
v -0.020992 -0.030104 0.058566
v -0.020544 -0.030282 0.059682
v -0.036390 -0.013037 0.063707
v -0.008739 -0.036455 0.062705
v -0.037026 -0.011692 0.060165
v -0.002826 -0.038013 0.060340
v -0.004197 -0.037721 0.062780
v -0.004188 -0.037560 0.063830
v -0.030782 -0.020458 0.064800
v -0.006066 -0.036520 0.066478
v -0.024235 -0.025709 0.067000
v -0.016927 -0.032506 0.062733
v -0.007993 -0.032735 0.080218
v -0.017935 -0.014241 0.107542
v -0.019981 -0.008737 0.109194
v -0.018933 -0.008462 0.110174
v -0.006944 -0.017267 0.112333
v -0.014978 -0.018069 0.104142
v -0.003581 -0.018418 0.112847
v -0.015293 -0.013724 0.109555
v -0.006475 -0.018468 0.112065
v 0.010352 -0.036681 0.042120
v 0.006436 -0.038895 0.039421
v 0.023722 -0.021843 0.031147
v 0.015193 -0.032460 0.053831
v 0.015968 -0.032162 0.045414
v 0.016476 -0.031452 0.047125
v 0.005137 -0.036537 0.064291
v 0.003801 -0.036280 0.068328
v 0.014288 -0.030839 0.069098
v 0.012043 -0.032649 0.070444
v 0.014860 -0.032149 0.062495
v 0.006848 -0.036157 0.061734
v 0.016902 -0.028966 0.065593
v 0.020278 -0.024298 0.061422
v 0.024159 -0.018065 0.062622
v 0.002317 -0.031966 0.084254
v 0.027397 -0.011816 0.064802
v 0.001604 -0.026545 0.102104
v 0.000529 -0.024402 0.110043
v 0.011029 -0.007901 0.109832
v 0.004281 -0.017963 0.112483
v 0.004692 -0.014360 0.115617
v 0.005829 -0.009089 0.116777
v 0.008203 -0.016094 0.107110
v 0.005086 -0.010340 0.117546
v -0.040755 0.007679 0.004971
v 0.002868 -0.008032 0.117706
v 0.012451 -0.009812 0.105339
v -0.000317 -0.020497 0.112128
v -0.013979 0.031841 0.008117
v -0.039095 -0.004611 0.038788
v -0.039613 0.002704 0.041290
v -0.034621 0.017456 0.039503
v -0.038875 0.001660 0.052466
v -0.038815 0.003124 0.054405
v -0.036838 0.007807 0.058131
v -0.036789 0.007483 0.060300
v -0.036609 0.006164 0.062011
v -0.034888 0.009829 0.064142
v -0.036740 0.001550 0.064264
v -0.032969 0.017291 0.060990
v -0.036583 -0.004809 0.068275
v -0.017668 0.027597 0.066897
v -0.018533 0.028014 0.062861
v -0.016467 0.028377 0.064014
v -0.024675 -0.001843 0.104677
v -0.024311 -0.004710 0.106442
v -0.020928 0.007464 0.105980
v -0.020498 0.006304 0.107617
v -0.018825 -0.000494 0.109741
v -0.004681 0.017768 0.104630
v -0.018361 0.003282 0.109486
v -0.024289 -0.000001 0.105223
v -0.020046 0.008929 0.106693
v -0.022467 -0.004300 0.107837
v -0.011013 0.015172 0.106778
v -0.014409 0.008893 0.109520
v -0.014750 0.000094 0.111494
v -0.004259 0.006106 0.113563
v 0.017781 0.024639 0.007370
v 0.017592 0.024702 0.008591
v 0.018960 0.023725 0.008818
v 0.025778 0.012717 0.045432
v 0.027185 0.009136 0.058308
v 0.022794 0.017354 0.059602
v -0.001524 0.031260 0.035716
v 0.006768 0.029800 0.041196
v 0.027206 0.007807 0.062462
v 0.029659 -0.003303 0.064264
v 0.009191 0.026854 0.064718
v 0.016141 -0.001360 0.102758
v 0.015674 0.009480 0.104034
v 0.016262 0.001275 0.104118
v 0.015525 0.007287 0.104751
v 0.012723 -0.005768 0.108478
v 0.020749 0.012100 0.095975
v 0.006358 0.008164 0.112088
v 0.002230 0.013034 0.109976
v 0.001156 -0.002359 0.118363
v 0.014420 0.007032 0.106019
v 0.011157 0.013070 0.105956
v 0.001216 0.003348 0.115940
v 0.004791 0.017455 0.105997
v 0.002987 0.017924 0.106273
v 0.011217 0.009992 0.108102
v 0.007055 0.013540 0.107843
f 16 12 14
f 88 12 17
f 9 20 1
f 9 1 57
f 9 112 20
f 13 12 16
f 13 91 12
f 13 16 15
f 13 15 91
f 58 57 1
f 58 1 59
f 63 74 68
f 63 68 57
f 63 58 74
f 63 57 58
f 65 117 9
f 65 9 57
f 47 54 15
f 47 15 16
f 47 16 14
f 46 47 44
f 46 54 47
f 4 1 20
f 4 20 19
f 34 35 48
f 28 30 27
f 43 14 27
f 118 112 9
f 118 9 117
f 118 117 65
f 92 91 15
f 92 15 89
f 92 99 97
f 129 127 140
f 129 140 142
f 79 68 74
f 79 133 68
f 61 59 1
f 31 38 23
f 31 112 38
f 31 19 20
f 31 32 19
f 70 57 68
f 70 65 57
f 150 155 15
f 150 151 162
f 150 15 54
f 149 46 151
f 149 54 46
f 149 151 150
f 149 150 54
f 53 146 44
f 148 151 46
f 148 46 44
f 148 44 146
f 3 1 4
f 3 4 19
f 7 6 1
f 22 32 27
f 22 19 32
f 22 27 14
f 33 41 35
f 119 38 112
f 50 34 48
f 25 23 38
f 24 27 32
f 24 28 27
f 24 32 31
f 24 31 23
f 37 27 30
f 37 43 27
f 42 47 14
f 42 14 43
f 111 109 165
f 141 133 81
f 128 139 126
f 128 68 133
f 128 70 68
f 87 88 17
f 87 12 91
f 87 17 12
f 96 88 87
f 96 87 97
f 103 110 99
f 103 15 155
f 161 109 111
f 164 170 142
f 134 127 139
f 134 139 140
f 134 140 127
f 135 139 133
f 135 140 139
f 135 133 141
f 137 142 170
f 137 170 129
f 137 129 142
f 86 105 84
f 86 79 105
f 80 81 133
f 80 79 81
f 80 133 79
f 76 79 74
f 69 59 61
f 21 20 112
f 21 112 31
f 21 31 20
f 64 65 70
f 154 162 155
f 154 155 150
f 154 150 162
f 147 148 146
f 147 146 153
f 156 162 151
f 156 147 153
f 156 151 148
f 156 148 147
f 152 156 153
f 2 6 22
f 2 12 1
f 2 1 6
f 8 7 1
f 8 19 7
f 8 1 3
f 8 3 19
f 5 6 7
f 5 22 6
f 5 7 19
f 5 19 22
f 130 41 119
f 130 40 41
f 130 127 129
f 130 119 127
f 51 53 44
f 51 50 53
f 56 50 48
f 56 48 152
f 56 152 153
f 26 23 25
f 26 24 23
f 26 25 38
f 26 38 119
f 26 119 41
f 29 30 28
f 29 28 24
f 29 24 26
f 29 41 33
f 29 26 41
f 29 33 35
f 29 37 30
f 49 34 50
f 49 43 37
f 45 47 42
f 45 42 43
f 45 44 47
f 45 43 44
f 108 111 84
f 125 139 127
f 125 127 123
f 124 126 139
f 124 139 125
f 124 125 123
f 122 127 119
f 122 123 127
f 122 119 112
f 132 133 139
f 132 139 128
f 132 128 133
f 121 70 128
f 121 128 126
f 121 112 118
f 121 122 112
f 121 123 122
f 121 126 124
f 121 124 123
f 90 87 91
f 90 97 87
f 90 91 92
f 90 92 97
f 95 110 105
f 95 105 96
f 95 99 110
f 95 97 99
f 95 96 97
f 101 103 99
f 101 15 103
f 101 89 15
f 159 109 161
f 159 155 162
f 114 110 103
f 114 103 161
f 114 108 110
f 145 164 142
f 145 168 164
f 145 165 168
f 144 81 165
f 85 81 79
f 85 86 81
f 85 79 86
f 82 86 84
f 82 81 86
f 83 79 76
f 83 76 78
f 83 105 79
f 83 78 105
f 75 73 78
f 75 69 73
f 75 78 69
f 72 73 69
f 72 69 61
f 77 78 76
f 77 69 78
f 77 59 69
f 18 88 60
f 18 12 88
f 18 60 1
f 18 1 12
f 62 61 1
f 62 1 60
f 62 72 61
f 62 60 72
f 11 22 14
f 11 14 2
f 11 2 22
f 10 14 12
f 10 2 14
f 10 12 2
f 116 152 48
f 131 130 129
f 131 152 116
f 131 116 130
f 131 156 152
f 131 129 170
f 131 170 156
f 55 53 50
f 55 50 56
f 55 146 53
f 55 153 146
f 55 56 153
f 36 29 35
f 36 37 29
f 36 49 37
f 36 35 34
f 36 34 49
f 52 49 50
f 52 51 44
f 52 50 51
f 52 44 43
f 52 43 49
f 115 84 105
f 115 105 108
f 115 108 84
f 107 105 110
f 107 108 105
f 107 110 108
f 106 161 111
f 106 111 108
f 106 114 161
f 106 108 114
f 120 121 118
f 120 118 65
f 120 65 64
f 120 64 70
f 120 70 121
f 102 94 96
f 102 73 94
f 102 105 78
f 102 78 73
f 93 96 94
f 93 60 88
f 93 94 60
f 100 99 92
f 100 101 99
f 100 92 89
f 100 89 101
f 157 103 155
f 157 155 159
f 157 161 103
f 157 159 161
f 163 164 168
f 163 168 165
f 163 170 164
f 163 165 109
f 163 109 171
f 167 163 171
f 166 171 109
f 136 135 141
f 136 141 81
f 136 81 144
f 113 111 165
f 113 84 111
f 113 82 84
f 113 165 81
f 113 81 82
f 71 60 94
f 71 72 60
f 71 94 73
f 71 73 72
f 67 77 76
f 67 76 74
f 67 59 77
f 39 116 48
f 39 48 35
f 39 40 130
f 39 130 116
f 39 35 41
f 39 41 40
f 104 96 105
f 104 105 102
f 104 102 96
f 98 88 96
f 98 93 88
f 98 96 93
f 143 165 145
f 143 140 135
f 143 142 140
f 143 145 142
f 169 170 163
f 169 167 162
f 169 156 170
f 169 162 156
f 160 109 159
f 160 166 109
f 160 159 162
f 138 135 136
f 138 136 144
f 138 143 135
f 138 144 165
f 138 165 143
f 66 67 74
f 66 59 67
f 66 74 58
f 66 58 59
f 172 163 167
f 172 169 163
f 172 167 169
f 158 160 162
f 158 162 167
f 158 167 171
f 158 171 166
f 158 166 160
